Coordinates
version=1
nRows=5
nColumns=63
inDegrees=yes

Units are S.I. units (second, meters, Newtons, ...)
If the header above contains a line with 'inDegrees', this indicates whether rotational values are in degrees (yes) or radians (no).

endheader
time	pelvis_tilt	pelvis_list	pelvis_rotation	pelvis_tx	pelvis_ty	pelvis_tz	hip_flexion_r	hip_adduction_r	hip_rotation_r	knee_angle_r	knee_angle_r_beta	ankle_angle_r	subtalar_angle_r	mtp_angle_r	hip_flexion_l	hip_adduction_l	hip_rotation_l	knee_angle_l	knee_angle_l_beta	ankle_angle_l	subtalar_angle_l	mtp_angle_l	L5_S1_Flex_Ext	L5_S1_Lat_Bending	L5_S1_axial_rotation	L4_L5_Flex_Ext	L4_L5_Lat_Bending	L4_L5_axial_rotation	L3_L4_Flex_Ext	L3_L4_Lat_Bending	L3_L4_axial_rotation	L2_L3_Flex_Ext	L2_L3_Lat_Bending	L2_L3_axial_rotation	L1_L2_Flex_Ext	L1_L2_Lat_Bending	L1_L2_axial_rotation	L1_T12_Flex_Ext	L1_T12_Lat_Bending	L1_T12_axial_rotation	Abs_r3	Abs_r2	Abs_r1	Abs_t1	Abs_t2	neck_flexion	neck_bending	neck_rotation	arm_flex_r	arm_add_r	arm_rot_r	elbow_flex_r	pro_sup_r	wrist_flex_r	wrist_dev_r	arm_flex_l	arm_add_l	arm_rot_l	elbow_flex_l	pro_sup_l	wrist_flex_l	wrist_dev_l
      2.65853659	     -2.04211114	      1.08145486	     91.34549278	      0.22559184	      1.01402810	      0.55043953	      1.72580443	     -3.08313266	    -10.84481112	      9.20877396	      0.16072343	     16.82119165	     14.56720935	      0.00000000	      0.28239699	      1.23576083	    -18.52329528	      4.97394074	      0.08681164	     15.31159962	     14.74402447	      0.00000000	     -0.06091928	     -0.52571009	      0.87611380	     -0.11313319	     -0.69919442	      0.93087091	     -0.10008428	     -1.27821152	      0.93087091	     -0.06962464	     -1.27821152	      0.76659958	     -0.05656964	     -1.07202802	      0.71184246	     -0.03480927	     -0.81432493	      0.65708535	     -0.43514030	     -5.94693770	      4.87268213	      0.00000000	      0.00000000	     16.31444770	      7.32903164	    -14.35288839	    106.32060858	    -25.64451769	     17.04824308	     88.63747840	     87.92845983	    -22.07214008	     11.55167709	    143.94343995	     -7.95735545	     55.57204354	     47.28175321	     88.95537300	    -59.68260087	    -22.58627799
      2.68292683	     -1.97562819	      1.09203117	     91.35882400	      0.22544964	      1.01407915	      0.54998686	      1.66185443	     -3.00546787	    -10.77521117	      9.14515082	      0.15961299	     16.81855829	     14.55879881	      0.00000000	      0.20300080	      1.18566496	    -18.56077803	      4.92181475	      0.08590187	     15.49002896	     14.87425847	      0.00000000	     -0.06496898	     -0.51647681	      0.76047492	     -0.12065389	     -0.68691416	      0.80800460	     -0.10673753	     -1.25576173	      0.80800460	     -0.07425305	     -1.25576173	      0.66541555	     -0.06033019	     -1.05319952	      0.61788587	     -0.03712327	     -0.80002258	      0.57035619	     -0.46406691	     -5.84248901	      4.22953335	      0.00000000	      0.00000000	     15.00602093	      7.09610651	    -15.05235932	    111.32874305	    -22.81822303	     18.53988968	     84.46980374	     87.62622483	    -22.46522249	     11.32369809	    145.53225671	     -7.31386320	     57.52788287	     44.92504730	     88.96402454	    -62.49361139	    -23.13389712
      2.70731707	     -2.01984908	      1.27956225	     91.35262583	      0.22539891	      1.01425659	      0.55029737	      1.51685850	     -3.07039958	    -10.84294038	      9.26267142	      0.16166411	     16.79073516	     14.55914148	      0.00000000	     -0.00450204	      1.24549892	    -18.58660436	      4.90645498	      0.08563379	     15.57814235	     14.88747432	      0.00000000	     -0.09233905	     -0.50900183	      0.51577903	     -0.17148285	     -0.67697243	      0.54801522	     -0.15170382	     -1.23758704	      0.54801522	     -0.10553430	     -1.23758704	      0.45130665	     -0.08574604	     -1.03795652	      0.41907046	     -0.05276253	     -0.78844383	      0.38683427	     -0.65956860	     -5.75793046	      2.86860824	      0.00000000	      0.00000000	     14.03608893	      6.47080935	    -14.07547759	    114.54369601	    -19.19865615	     19.17978727	     80.34306267	     87.47590781	    -22.55896545	      8.76538036	    145.82670423	     -7.73631054	     57.65990044	     45.14534400	     89.03524684	    -63.26560863	    -23.50096068
      2.73170732	     -2.07279326	      1.50408563	     91.35886442	      0.22539937	      1.01455509	      0.55090362	      1.33341848	     -3.15806064	    -11.19084784	      9.38834125	      0.16385747	     16.63052037	     14.74045741	      0.00000000	     -0.18538867	      1.29167313	    -18.55550929	      4.98248407	      0.08696075	     15.71744889	     14.84491492	      0.00000000	     -0.11391749	     -0.49305780	      0.22740273	     -0.21155617	     -0.65576687	      0.24161540	     -0.18715505	     -1.19882072	      0.24161540	     -0.13019630	     -1.19882072	      0.19897739	     -0.10578378	     -1.00544346	      0.18476472	     -0.06509245	     -0.76374653	      0.17055205	     -0.81370124	     -5.57756839	      1.26474578	      0.00000000	      0.00000000	     13.27839656	      6.69269129	    -10.52949830	    116.53048215	    -15.58381458	     19.58653245	     76.16661148	     87.08240816	    -22.26203155	      3.95539746	    144.55300574	     -8.89034191	     55.37566975	     47.86892280	     89.10016570	    -61.96901218	    -23.73969160
      2.75609756	     -2.00293830	      1.72717627	     91.28438443	      0.22489741	      1.01483935	      0.55179770	      1.18856567	     -3.18626211	    -11.80344487	      9.55592541	      0.16678236	     16.50656366	     15.34815990	      0.00000000	     -0.34405788	      1.24977593	    -18.47265674	      5.06817418	      0.08845633	     15.85491883	     14.58432906	      0.00000000	     -0.15216392	     -0.45128480	      0.11304648	     -0.28258361	     -0.60020878	      0.12011188	     -0.24999010	     -1.09725385	      0.12011188	     -0.17390814	     -1.09725385	      0.09891567	     -0.14129941	     -0.92025995	      0.09185026	     -0.08694646	     -0.69904015	      0.08478486	     -1.08689163	     -5.10502386	      0.62873059	      0.00000000	      0.00000000	     12.91464163	      6.55527602	     -7.07252144	    118.20698898	    -13.44285936	     20.38419476	     73.14057286	     86.58771758	    -20.61762889	      0.85449113	    140.59244488	     -9.30876929	     47.18632025	     52.69443188	     89.05564204	    -53.35242484	    -23.64701541
